# WaveFront *.obj file (generated by Autodesk ATF)

mtllib ba631624-6287-4e27-a482-3f82c5728b1e.mtl

g Body1

v 0.530330 0.000000 0.280330
v 0.520140 0.103462 0.280330
v 0.489961 0.202949 0.280330
v 0.440953 0.294636 0.280330
v 0.375000 0.375000 0.280330
v 0.294636 0.440953 0.280330
v 0.202949 0.489961 0.280330
v 0.103462 0.520140 0.280330
v 0.000000 0.530330 0.280330
v -0.103462 0.520140 0.280330
v -0.202949 0.489961 0.280330
v -0.294636 0.440953 0.280330
v -0.375000 0.375000 0.280330
v -0.440953 0.294636 0.280330
v -0.489961 0.202949 0.280330
v -0.520140 0.103462 0.280330
v -0.530330 0.000000 0.280330
v -0.520140 -0.103462 0.280330
v -0.489961 -0.202949 0.280330
v -0.440953 -0.294636 0.280330
v -0.375000 -0.375000 0.280330
v -0.294636 -0.440953 0.280330
v -0.202949 -0.489961 0.280330
v -0.103462 -0.520140 0.280330
v 0.000000 -0.530330 0.280330
v 0.103462 -0.520140 0.280330
v 0.202949 -0.489961 0.280330
v 0.294636 -0.440953 0.280330
v 0.375000 -0.375000 0.280330
v 0.440953 -0.294636 0.280330
v 0.489961 -0.202949 0.280330
v 0.520140 -0.103462 0.280330
v 0.250000 0.000000 0.280330
v 0.241481 -0.064705 0.280330
v 0.216506 -0.125000 0.280330
v 0.176777 -0.176777 0.280330
v 0.125000 -0.216506 0.280330
v 0.064705 -0.241481 0.280330
v 0.000000 -0.250000 0.280330
v -0.064705 -0.241481 0.280330
v -0.125000 -0.216506 0.280330
v -0.176777 -0.176777 0.280330
v -0.216506 -0.125000 0.280330
v -0.241481 -0.064705 0.280330
v -0.250000 0.000000 0.280330
v -0.241481 0.064705 0.280330
v -0.216506 0.125000 0.280330
v -0.176777 0.176777 0.280330
v -0.125000 0.216506 0.280330
v -0.064705 0.241481 0.280330
v 0.000000 0.250000 0.280330
v 0.064705 0.241481 0.280330
v 0.125000 0.216506 0.280330
v 0.176777 0.176777 0.280330
v 0.216506 0.125000 0.280330
v 0.241481 0.064705 0.280330
v 0.250000 0.000000 2.000000
v 0.241481 -0.064705 2.000000
v 0.216506 -0.125000 2.000000
v 0.176777 -0.176777 2.000000
v 0.125000 -0.216506 2.000000
v 0.064705 -0.241481 2.000000
v -0.000000 -0.250000 2.000000
v -0.064705 -0.241481 2.000000
v -0.125000 -0.216506 2.000000
v -0.176777 -0.176777 2.000000
v -0.216506 -0.125000 2.000000
v -0.241481 -0.064705 2.000000
v -0.250000 0.000000 2.000000
v -0.241481 0.064705 2.000000
v -0.216506 0.125000 2.000000
v -0.176777 0.176777 2.000000
v -0.125000 0.216506 2.000000
v -0.064705 0.241481 2.000000
v -0.000000 0.250000 2.000000
v 0.064705 0.241481 2.000000
v 0.125000 0.216506 2.000000
v 0.176777 0.176777 2.000000
v 0.216506 0.125000 2.000000
v 0.241481 0.064705 2.000000
v 0.000000 0.000000 -0.250000
vt 0.686155 -0.262794 0.000000
vt 0.712038 0.000000 0.000000
vt 0.000000 0.000000 0.000000
vt 0.686155 0.262794 0.000000
vt -0.021637 0.164350 0.000000
vt 0.609501 0.515489 0.000000
vt -0.085074 0.317500 0.000000
vt 0.485022 0.748374 0.000000
vt -0.185987 0.449013 0.000000
vt 0.317500 0.952500 0.000000
vt 0.113374 1.120022 0.000000
vt -0.317500 0.549926 0.000000
vt -0.119511 1.244501 0.000000
vt -0.470650 0.613363 0.000000
vt -0.372206 1.321155 0.000000
vt -0.635000 0.635000 0.000000
vt -0.635000 1.347038 0.000000
vt -0.897794 1.321155 0.000000
vt -0.799350 0.613363 0.000000
vt -1.150489 1.244501 0.000000
vt -0.952500 0.549926 0.000000
vt -1.383374 1.120022 0.000000
vt -1.084013 0.449013 0.000000
vt -1.587500 0.952500 0.000000
vt -1.755022 0.748374 0.000000
vt -1.184926 0.317500 0.000000
vt -1.879501 0.515489 0.000000
vt -1.248363 0.164350 0.000000
vt -1.956155 0.262794 0.000000
vt -1.270000 0.000000 0.000000
vt -1.982038 0.000000 0.000000
vt -1.956155 -0.262794 0.000000
vt -1.248363 -0.164350 0.000000
vt -1.879501 -0.515489 0.000000
vt -1.184926 -0.317500 0.000000
vt -1.755022 -0.748374 0.000000
vt -1.084013 -0.449013 0.000000
vt -1.587500 -0.952500 0.000000
vt -1.383374 -1.120022 0.000000
vt -0.952500 -0.549926 0.000000
vt -1.150489 -1.244501 0.000000
vt -0.799350 -0.613363 0.000000
vt -0.897794 -1.321155 0.000000
vt -0.635000 -0.635000 0.000000
vt -0.635000 -1.347038 0.000000
vt -0.372206 -1.321155 0.000000
vt -0.470650 -0.613363 0.000000
vt -0.119511 -1.244501 0.000000
vt -0.317500 -0.549926 0.000000
vt 0.113374 -1.120022 0.000000
vt -0.185987 -0.449013 0.000000
vt 0.317500 -0.952500 0.000000
vt 0.485022 -0.748374 0.000000
vt -0.085074 -0.317500 0.000000
vt 0.609501 -0.515489 0.000000
vt -0.021637 -0.164350 0.000000
vt 2.183981 0.166243 0.000000
vt -2.183981 0.166243 0.000000
vt 2.183981 0.000000 0.000000
vt -2.183981 0.000000 0.000000
vt 2.183981 -0.166243 0.000000
vt -2.183981 -0.166243 0.000000
vt 2.183981 -0.332485 0.000000
vt -2.183981 -0.332485 0.000000
vt 2.183981 -0.498728 0.000000
vt -2.183981 -0.498728 0.000000
vt 2.183981 -0.664970 0.000000
vt -2.183981 -0.664970 0.000000
vt 2.183981 -0.831213 0.000000
vt -2.183981 -0.831213 0.000000
vt 2.183981 -0.997456 0.000000
vt -2.183981 -0.997456 0.000000
vt 2.183981 -1.163698 0.000000
vt -2.183981 -1.163698 0.000000
vt 2.183981 -1.329941 0.000000
vt -2.183981 -1.329941 0.000000
vt 2.183981 -1.496184 0.000000
vt -2.183981 -1.496184 0.000000
vt 2.183981 -1.662426 0.000000
vt -2.183981 -1.662426 0.000000
vt 2.183981 -1.828669 0.000000
vt -2.183981 -1.828669 0.000000
vt 2.183981 -1.994911 0.000000
vt -2.183981 -1.994911 0.000000
vt 2.183981 1.994911 0.000000
vt -2.183981 1.994911 0.000000
vt 2.183981 1.828669 0.000000
vt -2.183981 1.828669 0.000000
vt 2.183981 1.662426 0.000000
vt -2.183981 1.662426 0.000000
vt 2.183981 1.496184 0.000000
vt -2.183981 1.496184 0.000000
vt 2.183981 1.329941 0.000000
vt -2.183981 1.329941 0.000000
vt 2.183981 1.163698 0.000000
vt -2.183981 1.163698 0.000000
vt 2.183981 0.997456 0.000000
vt -2.183981 0.997456 0.000000
vt 2.183981 0.831213 0.000000
vt -2.183981 0.831213 0.000000
vt 2.183981 0.664970 0.000000
vt -2.183981 0.664970 0.000000
vt 2.183981 0.498728 0.000000
vt -2.183981 0.498728 0.000000
vt 2.183981 0.332485 0.000000
vt -2.183981 0.332485 0.000000
vt 0.613363 0.164350 0.000000
vt -0.613363 0.164350 0.000000
vt 0.635000 0.000000 0.000000
vt -0.635000 0.000000 0.000000
vt 0.613363 -0.164350 0.000000
vt -0.613363 -0.164350 0.000000
vt 0.549926 -0.317500 0.000000
vt -0.549926 -0.317500 0.000000
vt 0.449013 -0.449013 0.000000
vt -0.449013 -0.449013 0.000000
vt 0.317500 -0.549926 0.000000
vt -0.317500 -0.549926 0.000000
vt 0.164350 -0.613363 0.000000
vt -0.164350 -0.613363 0.000000
vt -0.000000 -0.635000 0.000000
vt -0.549926 0.317500 0.000000
vt 0.549926 0.317500 0.000000
vt -0.449013 0.449013 0.000000
vt 0.449013 0.449013 0.000000
vt -0.317500 0.549926 0.000000
vt 0.317500 0.549926 0.000000
vt -0.164350 0.613363 0.000000
vt 0.164350 0.613363 0.000000
vt -0.000000 0.635000 0.000000
vt -0.952500 -0.132245 0.000000
vt 0.952500 -0.068256 0.000000
vt -0.952500 0.000000 0.000000
vt -0.952500 -0.396736 0.000000
vt 0.952500 -0.341278 0.000000
vt -0.952500 -0.264490 0.000000
vt -0.952500 -0.661226 0.000000
vt 0.952500 -0.614300 0.000000
vt -0.952500 -0.528981 0.000000
vt -0.952500 -0.925716 0.000000
vt 0.952500 -0.887323 0.000000
vt -0.952500 -0.793471 0.000000
vt -0.952500 -1.190207 0.000000
vt 0.952500 -1.160345 0.000000
vt -0.952500 -1.057961 0.000000
vt -0.952500 -1.454697 0.000000
vt 0.952500 -1.433367 0.000000
vt -0.952500 -1.322452 0.000000
vt -0.952500 -1.719187 0.000000
vt 0.952500 -1.706390 0.000000
vt -0.952500 -1.586942 0.000000
vt -0.952500 -1.983678 0.000000
vt 0.952500 -1.979412 0.000000
vt -0.952500 -1.851433 0.000000
vt -0.952500 1.983678 0.000000
vt 0.952500 1.979412 0.000000
vt -0.952500 2.115923 0.000000
vt -0.952500 1.851433 0.000000
vt -0.952500 1.719187 0.000000
vt 0.952500 1.842901 0.000000
vt -0.952500 1.586942 0.000000
vt 0.952500 1.706390 0.000000
vt -0.952500 1.454697 0.000000
vt 0.952500 1.569878 0.000000
vt -0.952500 1.322452 0.000000
vt 0.952500 1.433367 0.000000
vt -0.952500 1.190207 0.000000
vt 0.952500 1.296856 0.000000
vt -0.952500 1.057961 0.000000
vt 0.952500 1.160345 0.000000
vt -0.952500 0.925716 0.000000
vt 0.952500 1.023834 0.000000
vt -0.952500 0.793471 0.000000
vt 0.952500 0.887323 0.000000
vt -0.952500 0.661226 0.000000
vt 0.952500 0.750811 0.000000
vt -0.952500 0.396736 0.000000
vt 0.952500 0.477789 0.000000
vt -0.952500 0.528981 0.000000
vt -0.952500 0.132245 0.000000
vt 0.952500 0.204767 0.000000
vt -0.952500 0.264490 0.000000
vt -0.952500 -2.115923 0.000000
vt 0.952500 -2.115923 0.000000
vt 0.952500 -1.842901 0.000000
vt 0.952500 -1.569878 0.000000
vt 0.952500 -1.296856 0.000000
vt 0.952500 -1.023834 0.000000
vt 0.952500 -0.477789 0.000000
vt 0.952500 -0.204767 0.000000
vt 0.952500 0.068256 0.000000
vt 0.952500 0.341278 0.000000
vt 0.952500 0.614300 0.000000
vt 0.952500 -0.705308 0.000000
vn -0.000000 0.000000 2.540000
vn -0.000000 0.000000 2.540000
vn -0.000000 0.000000 2.540000
vn -0.000000 0.000000 2.540000
vn -0.000000 0.000000 2.540000
vn -0.000000 0.000000 2.540000
vn -0.000000 0.000000 2.540000
vn -0.000000 0.000000 2.540000
vn -0.000000 0.000000 2.540000
vn -0.000000 0.000000 2.540000
vn -0.000000 0.000000 2.540000
vn -0.000000 0.000000 2.540000
vn -0.000000 0.000000 2.540000
vn -0.000000 0.000000 2.540000
vn -0.000000 0.000000 2.540000
vn -0.000000 0.000000 2.540000
vn -0.000000 0.000000 2.540000
vn -0.000000 0.000000 2.540000
vn -0.000000 0.000000 2.540000
vn -0.000000 0.000000 2.540000
vn -0.000000 0.000000 2.540000
vn -0.000000 0.000000 2.540000
vn -0.000000 0.000000 2.540000
vn -0.000000 0.000000 2.540000
vn -0.000000 0.000000 2.540000
vn -0.000000 0.000000 2.540000
vn -0.000000 0.000000 2.540000
vn -0.000000 0.000000 2.540000
vn -0.000000 0.000000 2.540000
vn -0.000000 0.000000 2.540000
vn -0.000000 0.000000 2.540000
vn -0.000000 0.000000 2.540000
vn -0.000000 0.000000 2.540000
vn -0.000000 0.000000 2.540000
vn -0.000000 0.000000 2.540000
vn -0.000000 0.000000 2.540000
vn -0.000000 0.000000 2.540000
vn -0.000000 0.000000 2.540000
vn -0.000000 0.000000 2.540000
vn -0.000000 0.000000 2.540000
vn -0.000000 0.000000 2.540000
vn -0.000000 0.000000 2.540000
vn -0.000000 0.000000 2.540000
vn -0.000000 0.000000 2.540000
vn -0.000000 0.000000 2.540000
vn -0.000000 0.000000 2.540000
vn -0.000000 0.000000 2.540000
vn -0.000000 0.000000 2.540000
vn -0.000000 0.000000 2.540000
vn -0.000000 0.000000 2.540000
vn -0.000000 0.000000 2.540000
vn -0.000000 0.000000 2.540000
vn -0.000000 0.000000 2.540000
vn -0.000000 0.000000 2.540000
vn -0.000000 0.000000 2.540000
vn -0.000000 0.000000 2.540000
vn 2.453452 0.657400 0.000000
vn 2.453452 0.657400 0.000000
vn 2.540000 -0.000000 0.000000
vn 2.540000 -0.000000 0.000000
vn 2.453452 -0.657400 0.000000
vn 2.453452 -0.657400 0.000000
vn 2.199705 -1.270000 0.000000
vn 2.199705 -1.270000 0.000000
vn 1.796051 -1.796051 0.000000
vn 1.796051 -1.796051 0.000000
vn 1.270000 -2.199705 0.000000
vn 1.270000 -2.199705 0.000000
vn 0.657400 -2.453452 0.000000
vn 0.657400 -2.453452 0.000000
vn -0.000000 -2.540000 -0.000000
vn 0.000000 -2.540000 0.000000
vn -0.657400 -2.453452 -0.000000
vn -0.657400 -2.453452 -0.000000
vn -1.270000 -2.199705 -0.000000
vn -1.270000 -2.199705 -0.000000
vn -1.796051 -1.796051 -0.000000
vn -1.796051 -1.796051 -0.000000
vn -2.199705 -1.270000 -0.000000
vn -2.199705 -1.270000 -0.000000
vn -2.453452 -0.657400 -0.000000
vn -2.453452 -0.657400 -0.000000
vn -2.540000 -0.000000 -0.000000
vn -2.540000 -0.000000 -0.000000
vn -2.453452 0.657400 -0.000000
vn -2.453452 0.657400 -0.000000
vn -2.199705 1.270000 -0.000000
vn -2.199705 1.270000 -0.000000
vn -1.796051 1.796051 -0.000000
vn -1.796051 1.796051 -0.000000
vn -1.270000 2.199705 -0.000000
vn -1.270000 2.199705 -0.000000
vn -0.657400 2.453452 -0.000000
vn -0.657400 2.453452 -0.000000
vn -0.000000 2.540000 -0.000000
vn 0.000000 2.540000 0.000000
vn 0.657400 2.453452 0.000000
vn 0.657400 2.453452 0.000000
vn 1.270000 2.199705 0.000000
vn 1.270000 2.199705 0.000000
vn 1.796051 1.796051 0.000000
vn 1.796051 1.796051 0.000000
vn 2.199705 1.270000 0.000000
vn 2.199705 1.270000 0.000000
vn -0.000000 0.000000 2.540000
vn -0.000000 0.000000 2.540000
vn -0.000000 0.000000 2.540000
vn -0.000000 0.000000 2.540000
vn -0.000000 0.000000 2.540000
vn -0.000000 0.000000 2.540000
vn -0.000000 0.000000 2.540000
vn -0.000000 0.000000 2.540000
vn -0.000000 0.000000 2.540000
vn -0.000000 0.000000 2.540000
vn -0.000000 0.000000 2.540000
vn -0.000000 0.000000 2.540000
vn -0.000000 0.000000 2.540000
vn -0.000000 0.000000 2.540000
vn -0.000000 0.000000 2.540000
vn -0.000000 0.000000 2.540000
vn -0.000000 0.000000 2.540000
vn -0.000000 0.000000 2.540000
vn -0.000000 0.000000 2.540000
vn -0.000000 0.000000 2.540000
vn -0.000000 0.000000 2.540000
vn -0.000000 0.000000 2.540000
vn -0.000000 0.000000 2.540000
vn -0.000000 0.000000 2.540000
vn 1.761541 -0.350392 -1.796051
vn 1.786836 -0.181703 -1.796051
vn 1.796051 0.000000 -1.796051
vn 1.493362 -0.997833 -1.796051
vn 1.570371 -0.871627 -1.796051
vn 1.659335 -0.687319 -1.796051
vn 0.997833 -1.493362 -1.796051
vn 1.099374 -1.420274 -1.796051
vn 1.270000 -1.270000 -1.796051
vn 0.350392 -1.761541 -1.796051
vn 0.450185 -1.738716 -1.796051
vn 0.687319 -1.659335 -1.796051
vn -0.350392 -1.761541 -1.796051
vn -0.271972 -1.775340 -1.796051
vn 0.000000 -1.796051 -1.796051
vn -0.997833 -1.493362 -1.796051
vn -0.950046 -1.524209 -1.796051
vn -0.687319 -1.659335 -1.796051
vn -1.493362 -0.997833 -1.796051
vn -1.474133 -1.026027 -1.796051
vn -1.270000 -1.270000 -1.796051
vn -1.761541 -0.350392 -1.796051
vn -1.759286 -0.361542 -1.796051
vn -1.659335 -0.687319 -1.796051
vn -1.761541 0.350392 -1.796051
vn -1.759286 0.361542 -1.796051
vn -1.796051 0.000000 -1.796051
vn -1.659335 0.687319 -1.796051
vn -1.493362 0.997833 -1.796051
vn -1.650495 0.708283 -1.796051
vn -1.270000 1.270000 -1.796051
vn -1.474133 1.026027 -1.796051
vn -0.997833 1.493362 -1.796051
vn -1.237420 1.301765 -1.796051
vn -0.687319 1.659335 -1.796051
vn -0.950046 1.524209 -1.796051
vn -0.350392 1.761541 -1.796051
vn -0.623778 1.684251 -1.796051
vn 0.000000 1.796051 -1.796051
vn -0.271972 1.775340 -1.796051
vn 0.350392 1.761541 -1.796051
vn 0.090969 1.793746 -1.796051
vn 0.687319 1.659335 -1.796051
vn 0.450185 1.738716 -1.796051
vn 0.997833 1.493362 -1.796051
vn 0.790970 1.612503 -1.796051
vn 1.493362 0.997833 -1.796051
vn 1.362768 1.169898 -1.796051
vn 1.270000 1.270000 -1.796051
vn 1.761541 0.350392 -1.796051
vn 1.713683 0.537672 -1.796051
vn 1.659335 0.687319 -1.796051
vn -1.796051 -0.000000 -1.796051
vn -1.650495 -0.708283 -1.796051
vn -1.237420 -1.301765 -1.796051
vn -0.623778 -1.684251 -1.796051
vn 0.090969 -1.793746 -1.796051
vn 1.362768 -1.169898 -1.796051
vn 1.713683 -0.537672 -1.796051
vn 1.786836 0.181703 -1.796051
vn 1.570371 0.871627 -1.796051
vn 1.099374 1.420274 -1.796051
vn 0.898026 -1.555426 -1.796051
usemtl Steel_-_Satin
f 32/1/1 1/2/2 33/3/3
f 33/3/3 1/2/2 2/4/4
f 33/3/3 2/4/4 56/5/5
f 56/5/5 2/4/4 3/6/6
f 56/5/5 3/6/6 55/7/7
f 55/7/7 3/6/6 4/8/8
f 55/7/7 4/8/8 54/9/9
f 54/9/9 4/8/8 5/10/10
f 54/9/9 5/10/10 6/11/11
f 54/9/9 6/11/11 53/12/12
f 53/12/12 6/11/11 7/13/13
f 53/12/12 7/13/13 52/14/14
f 52/14/14 7/13/13 8/15/15
f 52/14/14 8/15/15 51/16/16
f 51/16/16 8/15/15 9/17/17
f 51/16/16 9/17/17 10/18/18
f 51/16/16 10/18/18 50/19/19
f 50/19/19 10/18/18 11/20/20
f 50/19/19 11/20/20 49/21/21
f 49/21/21 11/20/20 12/22/22
f 49/21/21 12/22/22 48/23/23
f 48/23/23 12/22/22 13/24/24
f 48/23/23 13/24/24 14/25/25
f 48/23/23 14/25/25 47/26/26
f 47/26/26 14/25/25 15/27/27
f 47/26/26 15/27/27 46/28/28
f 46/28/28 15/27/27 16/29/29
f 46/28/28 16/29/29 45/30/30
f 45/30/30 16/29/29 17/31/31
f 45/30/30 17/31/31 18/32/32
f 45/30/30 18/32/32 44/33/33
f 44/33/33 18/32/32 19/34/34
f 44/33/33 19/34/34 43/35/35
f 43/35/35 19/34/34 20/36/36
f 43/35/35 20/36/36 42/37/37
f 42/37/37 20/36/36 21/38/38
f 42/37/37 21/38/38 22/39/39
f 42/37/37 22/39/39 41/40/40
f 41/40/40 22/39/39 23/41/41
f 41/40/40 23/41/41 40/42/42
f 40/42/42 23/41/41 24/43/43
f 40/42/42 24/43/43 39/44/44
f 39/44/44 24/43/43 25/45/45
f 39/44/44 25/45/45 26/46/46
f 39/44/44 26/46/46 38/47/47
f 38/47/47 26/46/46 27/48/48
f 38/47/47 27/48/48 37/49/49
f 37/49/49 27/48/48 28/50/50
f 37/49/49 28/50/50 36/51/51
f 36/51/51 28/50/50 29/52/52
f 36/51/51 29/52/52 30/53/53
f 36/51/51 30/53/53 35/54/54
f 35/54/54 30/53/53 31/55/55
f 35/54/54 31/55/55 34/56/56
f 34/56/56 31/55/55 32/1/1
f 34/56/56 32/1/1 33/3/3
f 56/57/57 80/58/58 33/59/59
f 33/59/59 80/58/58 57/60/60
f 33/59/59 57/60/60 34/61/61
f 34/61/61 57/60/60 58/62/62
f 34/61/61 58/62/62 35/63/63
f 35/63/63 58/62/62 59/64/64
f 35/63/63 59/64/64 36/65/65
f 36/65/65 59/64/64 60/66/66
f 36/65/65 60/66/66 37/67/67
f 37/67/67 60/66/66 61/68/68
f 37/67/67 61/68/68 38/69/69
f 38/69/69 61/68/68 62/70/70
f 38/69/69 62/70/70 39/71/71
f 39/71/71 62/70/70 63/72/72
f 39/71/71 63/72/72 40/73/73
f 40/73/73 63/72/72 64/74/74
f 40/73/73 64/74/74 41/75/75
f 41/75/75 64/74/74 65/76/76
f 41/75/75 65/76/76 42/77/77
f 42/77/77 65/76/76 66/78/78
f 42/77/77 66/78/78 43/79/79
f 43/79/79 66/78/78 67/80/80
f 43/79/79 67/80/80 44/81/81
f 44/81/81 67/80/80 68/82/82
f 44/81/81 68/82/82 45/83/83
f 45/83/83 68/82/82 69/84/84
f 45/85/83 69/86/84 46/87/85
f 46/87/85 69/86/84 70/88/86
f 46/87/85 70/88/86 47/89/87
f 47/89/87 70/88/86 71/90/88
f 47/89/87 71/90/88 48/91/89
f 48/91/89 71/90/88 72/92/90
f 48/91/89 72/92/90 49/93/91
f 49/93/91 72/92/90 73/94/92
f 49/93/91 73/94/92 50/95/93
f 50/95/93 73/94/92 74/96/94
f 50/95/93 74/96/94 51/97/95
f 51/97/95 74/96/94 75/98/96
f 51/97/95 75/98/96 52/99/97
f 52/99/97 75/98/96 76/100/98
f 52/99/97 76/100/98 53/101/99
f 53/101/99 76/100/98 77/102/100
f 53/101/99 77/102/100 54/103/101
f 54/103/101 77/102/100 78/104/102
f 54/103/101 78/104/102 55/105/103
f 55/105/103 78/104/102 79/106/104
f 55/105/103 79/106/104 56/57/57
f 56/57/57 79/106/104 80/58/58
f 80/107/105 70/108/106 57/109/107
f 57/109/107 70/108/106 69/110/108
f 57/109/107 69/110/108 58/111/109
f 58/111/109 69/110/108 68/112/110
f 58/111/109 68/112/110 59/113/111
f 59/113/111 68/112/110 67/114/112
f 59/113/111 67/114/112 60/115/113
f 60/115/113 67/114/112 66/116/114
f 60/115/113 66/116/114 61/117/115
f 61/117/115 66/116/114 65/118/116
f 61/117/115 65/118/116 62/119/117
f 62/119/117 65/118/116 64/120/118
f 62/119/117 64/120/118 63/121/119
f 70/108/106 80/107/105 71/122/120
f 71/122/120 80/107/105 79/123/121
f 71/122/120 79/123/121 72/124/122
f 72/124/122 79/123/121 78/125/123
f 72/124/122 78/125/123 73/126/124
f 73/126/124 78/125/123 77/127/125
f 73/126/124 77/127/125 74/128/126
f 74/128/126 77/127/125 76/129/127
f 74/128/126 76/129/127 75/130/128
f 32/131/129 81/132/130 1/133/131
f 30/134/132 81/135/133 31/136/134
f 28/137/135 81/138/136 29/139/137
f 26/140/138 81/141/139 27/142/140
f 24/143/141 81/144/142 25/145/143
f 22/146/144 81/147/145 23/148/146
f 20/149/147 81/150/148 21/151/149
f 18/152/150 81/153/151 19/154/152
f 16/155/153 81/156/154 17/157/155
f 16/155/153 15/158/156 81/156/154
f 15/158/156 14/159/157 81/160/158
f 14/159/157 13/161/159 81/162/160
f 13/161/159 12/163/161 81/164/162
f 12/163/161 11/165/163 81/166/164
f 11/165/163 10/167/165 81/168/166
f 10/167/165 9/169/167 81/170/168
f 9/169/167 8/171/169 81/172/170
f 8/171/169 7/173/171 81/174/172
f 7/173/171 6/175/173 81/176/174
f 4/177/175 81/178/176 5/179/177
f 2/180/178 81/181/179 3/182/180
f 17/183/155 81/184/181 18/152/150
f 19/154/152 81/185/182 20/149/147
f 21/151/149 81/186/183 22/146/144
f 23/148/146 81/187/184 24/143/141
f 25/145/143 81/188/185 26/140/138
f 29/139/137 81/189/186 30/134/132
f 31/136/134 81/190/187 32/131/129
f 1/133/131 81/191/188 2/180/178
f 3/182/180 81/192/189 4/177/175
f 5/179/177 81/193/190 6/175/173
f 27/142/140 81/194/191 28/137/135
# 81 vertices
# 194 texture params
# 191 normals
# 158 facets

# 1 groups
